<svg xmlns="http://www.w3.org/2000/svg" xmlns:xlink="http://www.w3.org/1999/xlink" version="1.1" id="Layer_1" x="0px" y="0px" viewBox="0 0 100 100" enable-background="new 0 0 100 100" xml:space="preserve" height="20px" width="20px">
<path d="M73.9,12.1l-0.1,3.2c0,0,0,0,0,0l-0.2,5.7H34.1l-1.7,1.8c-1.9,1.8-3.3,4.6-3.3,7.2c0,3,1.4,5.8,3.8,7.5l1.1,0.8L37,76.8  l0.9,11.9c0.1,0.9-0.6,1.6-1.5,1.6h0c-0.8,0-1.4-0.6-1.5-1.4l-0.9-12.1l-0.4-5.2l-0.9-11.5l-1.5-20c-3.1-2.3-5.1-5.9-5.1-10  c0-3.5,1.5-6.7,3.8-8.9h-0.1h-3.4l-0.2-5.7c0,0,0,0,0,0l-0.1-3.2C26,9.9,27.8,8.1,30,8.1h40C72.2,8.1,74,9.9,73.9,12.1 M80.5,30.1  L80.5,30.1c0-0.9-0.1-1.7-0.3-2.6c-0.5-2.5-1.8-4.7-3.6-6.4l0.2-5.6c0-0.1,0-0.1,0-0.2l0.3-6.3C77.3,6.8,75.5,5,73.3,5H26.7  c-2.2,0-4,1.8-3.9,4.1l0.3,6.3c0,0.1,0,0.1,0,0.2l0.2,5.6c-1.8,1.7-3,3.9-3.6,6.4c-0.2,0.8-0.3,1.7-0.3,2.6c0,2.6,0.8,5,2.1,6.9  c0.8,1.2,1.8,2.2,3,3.1l1.5,23.1l0,0.4l0.6,9.4l0.3,3.9l0.9,12.8c0.2,3,2.7,5.4,5.7,5.4h32.8c3,0,5.5-2.3,5.7-5.4L73,76.8l2.5-36.8  c1.2-0.8,2.2-1.9,3-3.1C79.7,35,80.5,32.6,80.5,30.1"/>
</svg>
